<svg xmlns="http://www.w3.org/2000/svg" xmlns:xlink="http://www.w3.org/1999/xlink" width="148.008" height="106.485" viewBox="0 0 148.008 106.485">
  <defs>
    <clipPath id="clip-path">
      <rect id="Rectangle_1195" data-name="Rectangle 1195" width="148.008" height="106.485" fill="none"/>
    </clipPath>
  </defs>
  <g id="Group_9315" data-name="Group 9315" opacity="0.483" clip-path="url(#clip-path)">
    <path id="Path_2840" data-name="Path 2840" d="M74.362,10.916C68.721,2.563,59.009-1.524,49.924.52c-10.9,2.438-15.6,12.583-16.118,13.766-1.5-.108-3-.209-4.488-.285C6.9,12.925.843,25.221.042,37.947c-.593,9.535,5.151,19.108,14.375,24.271a25.324,25.324,0,0,0-.924,16.955l89.888-75.78C93.423.4,82.347,3.227,74.362,10.916Z" transform="translate(0.402 0.402)" fill="none" stroke="#01d6c6" stroke-miterlimit="10" stroke-width="1"/>
    <path id="Path_2841" data-name="Path 2841" d="M84.991,0,0,71.651a23.5,23.5,0,0,0,9.2-4.642C17.277,78.086,30.54,83.391,42.9,80.523c14.378-3.334,20.887-16.275,21.757-18.1a19.906,19.906,0,0,0,22.07-3.37c6.192-5.987,5.988-14.3,5.953-15.667a23.922,23.922,0,0,0,12.183-23.66A23.551,23.551,0,0,0,84.991,0Z" transform="translate(42.589 24.791)" fill="none" stroke="#01d6c6" stroke-miterlimit="10" stroke-width="1"/>
  </g>
</svg>
