<svg xmlns="http://www.w3.org/2000/svg" xmlns:xlink="http://www.w3.org/1999/xlink" width="126.003" height="116.152" viewBox="0 0 126.003 116.152">
  <defs>
    <clipPath id="clip-path">
      <rect id="Rectangle_1195" data-name="Rectangle 1195" width="102.633" height="73.839" fill="none"/>
    </clipPath>
  </defs>
  <g id="Group_9320" data-name="Group 9320" transform="translate(0 52.859) rotate(-31)">
    <g id="Group_9315" data-name="Group 9315" clip-path="url(#clip-path)">
      <path id="Path_2840" data-name="Path 2840" d="M51.565,7.57A16.347,16.347,0,0,0,34.618.361C27.063,2.051,23.8,9.086,23.442,9.906c-1.037-.075-2.077-.145-3.112-.2C4.784,8.963.584,17.489.029,26.314-.382,32.926,3.6,39.564,10,43.143A17.561,17.561,0,0,0,9.357,54.9L71.688,2.352A20.574,20.574,0,0,0,51.565,7.57Z" transform="translate(0.279 0.279)" fill="none" stroke="#01d6c6" stroke-miterlimit="10" stroke-width="1"/>
      <path id="Path_2841" data-name="Path 2841" d="M58.935,0,0,49.685a16.292,16.292,0,0,0,6.38-3.219c5.6,7.681,14.8,11.36,23.367,9.371,9.97-2.312,14.484-11.286,15.087-12.553a13.8,13.8,0,0,0,15.3-2.337c4.294-4.152,4.152-9.919,4.128-10.864a16.588,16.588,0,0,0,8.448-16.406A16.331,16.331,0,0,0,58.935,0Z" transform="translate(29.532 17.191)" fill="none" stroke="#01d6c6" stroke-miterlimit="10" stroke-width="1"/>
    </g>
  </g>
</svg>
