<svg xmlns="http://www.w3.org/2000/svg" width="120.039" height="120.067" viewBox="0 0 120.039 120.067">
  <g id="Group_1208" data-name="Group 1208" transform="translate(-483 -1776.998)">
    <g id="Group_1207" data-name="Group 1207" transform="translate(483.001 1776.999)">
      <g id="Group_1205" data-name="Group 1205" transform="translate(38.716 44.145)">
        <path id="Path_29" d="M393.7,700.457c0-1.133-1.3-1.457-2.186-1.457s-2.186.324-2.186,1.457v20.075c0,1.943-.567,4.047-2.509,4.857a6.364,6.364,0,0,1-6.233-.648c-1.457-1.3-1.538-3.481-1.538-5.423V701.024a2.57,2.57,0,0,0-.162-1.133,2.14,2.14,0,0,0-2.186-.729c-.809,0-1.7.162-2.024.89a2.239,2.239,0,0,0-.081.728v18.375c0,2.59.081,5.423,1.619,7.447,2.348,3.157,7.285,3.723,10.847,2.914a8.908,8.908,0,0,0,4.776-2.752,9.416,9.416,0,0,0,1.781-6.233Z" transform="translate(-374.6 -698.961)" fill="#fff"/>
        <path id="Path_30" d="M409.845,714.29l-7.2,12.385c-1.3,2.186,2.752,4.128,4.047,2.024l6.071-11.089,6.152,11.089c1.214,2.186,5.262.162,3.966-2.024l-7.2-12.385,7.042-12.3c1.457-2.509-2.752-4.29-4.128-1.862l-5.828,10.685-5.747-10.685c-1.3-2.428-5.585-.728-4.128,1.862Z" transform="translate(-379.895 -698.951)" fill="#fff"/>
      </g>
      <path id="Path_28" d="M429.515,662.212c-11.332-11.495,11.171,11.333,0,0a60.062,60.062,0,0,0-100.536,58.605c.081.162.081.4.162.567a61.428,61.428,0,0,0,38.693,40.069,60.146,60.146,0,0,0,69.048-23.96l.729-1.214a2.4,2.4,0,1,0-4.047-2.59,11.84,11.84,0,0,1-.728,1.052,65.693,65.693,0,0,1-5.828,7.447l-8.823-8.823a38.691,38.691,0,0,0,6.476-9.228,42.879,42.879,0,0,0,4.695-16.675H441.9a51.044,51.044,0,0,1-1.457,9.876,2.415,2.415,0,1,0,4.695,1.133,60.233,60.233,0,0,0-15.623-56.258Zm-13.923,10.6a42.954,42.954,0,0,0-9.471-6.557,42.394,42.394,0,0,0-11.171-3.8,36.72,36.72,0,0,0-5.99-.729V649.18a55.047,55.047,0,0,1,35.455,14.732Zm-31.407-11.09c-1.619.081-3.238.324-4.857.567a2.37,2.37,0,1,0,.648,4.695h.243a37.641,37.641,0,0,1,15.623.4,36.219,36.219,0,0,1,12.223,5.5,38.578,38.578,0,0,1,16.675,31.164,38.421,38.421,0,0,1-11.414,27.6c-13.518,13.113-36.1,14-50.592,1.942a38.149,38.149,0,0,1,1.3-59.5,2.391,2.391,0,0,0-2.671-3.966c-.081,0-.081.081-.162.162-1.133.809-2.185,1.781-3.238,2.671l-8.823-8.823a55.1,55.1,0,0,1,35.212-14.975v12.547Zm0,97.945A54.679,54.679,0,0,1,349.7,745.425l8.823-8.9A42.24,42.24,0,0,0,384.1,747.044v12.628Zm-38.612-92.117,8.9,8.9a42.716,42.716,0,0,0-10.442,26.308H331.489a55.106,55.106,0,0,1,14.085-35.212Zm-1.457,39.988a42.145,42.145,0,0,0,11.009,25.66l-8.823,8.823a54.847,54.847,0,0,1-14.732-34.483Zm44.844,39.583a42.73,42.73,0,0,0,25.822-10.361l8.9,8.9a54.583,54.583,0,0,1-34.645,14V747.125Zm40.554-44.359a42.435,42.435,0,0,0-10.6-26.551l8.9-8.9a54.711,54.711,0,0,1,14.246,35.455Z" transform="translate(-326.768 -644.419)" fill="#fff"/>
    </g>
  </g>
</svg>
