<svg xmlns="http://www.w3.org/2000/svg" width="99.105" height="99.129" viewBox="0 0 99.105 99.129">
  <g id="Group_1201" data-name="Group 1201" transform="translate(-10814.301 18505.801)">
    <path id="Path_11" d="M1129.289,162.231V113.8a1.626,1.626,0,0,0-1.6-1.6h-63.857a1.626,1.626,0,0,0-1.6,1.6h0v4.809h-4.809a1.625,1.625,0,0,0-1.6,1.6h0v4.809H1051a1.626,1.626,0,0,0-1.6,1.6h0v83.095a1.626,1.626,0,0,0,1.6,1.6h63.924a1.625,1.625,0,0,0,1.6-1.6h0v-1.47a23.958,23.958,0,1,0,16.031-45.154A26.162,26.162,0,0,0,1129.289,162.231Zm-63.858-46.824h60.718V161.83a12.882,12.882,0,0,0-1.6-.067c-.534,0-1.068.067-1.6.067V120.216a1.626,1.626,0,0,0-1.6-1.6h-55.909Zm-6.412,6.412h60.718v40.412a19.377,19.377,0,0,0-3.207.935V126.628a1.625,1.625,0,0,0-1.6-1.6h-55.908Zm54.305,86.234h-60.718V128.164h60.718V164.5a23.933,23.933,0,0,0,0,42.349Zm11.155-1.6a20.774,20.774,0,1,1,20.774-20.774,20.753,20.753,0,0,1-20.774,20.774Z" transform="translate(9764.899 -18617.998)" fill="#fff"/>
    <g id="Group_1199" data-name="Group 1199" transform="translate(10814.301 -18505.801)">
      <path id="Path_13" d="M1154.884,219.151l-9.084,9.084,2.271,2.271,9.552-9.552a1.743,1.743,0,0,0,.467-1.135V210.2h-3.206Z" transform="translate(-1081.408 -144.739)" fill="#fff"/>
      <path id="Path_11-2" data-name="Path_11" d="M1129.289,162.231V113.8a1.626,1.626,0,0,0-1.6-1.6h-63.857a1.626,1.626,0,0,0-1.6,1.6h0v4.809h-4.809a1.625,1.625,0,0,0-1.6,1.6h0v4.809H1051a1.626,1.626,0,0,0-1.6,1.6h0v83.095a1.626,1.626,0,0,0,1.6,1.6h63.924a1.625,1.625,0,0,0,1.6-1.6h0v-1.47a23.958,23.958,0,1,0,16.031-45.154A26.162,26.162,0,0,0,1129.289,162.231Zm-63.858-46.824h60.718V161.83a12.882,12.882,0,0,0-1.6-.067c-.534,0-1.068.067-1.6.067V120.216a1.626,1.626,0,0,0-1.6-1.6h-55.909Zm-6.412,6.412h60.718v40.412a19.377,19.377,0,0,0-3.207.935V126.628a1.625,1.625,0,0,0-1.6-1.6h-55.908Zm54.305,86.234h-60.718V128.164h60.718V164.5a23.933,23.933,0,0,0,0,42.349Zm11.155-1.6a20.774,20.774,0,1,1,20.774-20.774,20.753,20.753,0,0,1-20.774,20.774Z" transform="translate(-1049.4 -112.2)" fill="#fff"/>
    </g>
    <g id="Group_1200" data-name="Group 1200" transform="translate(10814.301 -18505.801)">
      <path id="Path_13-2" data-name="Path_13" d="M1154.884,219.151l-9.084,9.084,2.271,2.271,9.552-9.552a1.743,1.743,0,0,0,.467-1.135V210.2h-3.206Z" transform="translate(-1081.408 -144.739)" fill="#fff"/>
      <path id="Path_11-3" data-name="Path_11" d="M1129.289,162.231V113.8a1.626,1.626,0,0,0-1.6-1.6h-63.857a1.626,1.626,0,0,0-1.6,1.6h0v4.809h-4.809a1.625,1.625,0,0,0-1.6,1.6h0v4.809H1051a1.626,1.626,0,0,0-1.6,1.6h0v83.095a1.626,1.626,0,0,0,1.6,1.6h63.924a1.625,1.625,0,0,0,1.6-1.6h0v-1.47a23.958,23.958,0,1,0,16.031-45.154A26.162,26.162,0,0,0,1129.289,162.231Zm-63.858-46.824h60.718V161.83a12.882,12.882,0,0,0-1.6-.067c-.534,0-1.068.067-1.6.067V120.216a1.626,1.626,0,0,0-1.6-1.6h-55.909Zm-6.412,6.412h60.718v40.412a19.377,19.377,0,0,0-3.207.935V126.628a1.625,1.625,0,0,0-1.6-1.6h-55.908Zm54.305,86.234h-60.718V128.164h60.718V164.5a23.933,23.933,0,0,0,0,42.349Zm11.155-1.6a20.774,20.774,0,1,1,20.774-20.774,20.753,20.753,0,0,1-20.774,20.774Z" transform="translate(-1049.4 -112.2)" fill="#fff"/>
    </g>
  </g>
</svg>
