<svg id="Group_1174" data-name="Group 1174" xmlns="http://www.w3.org/2000/svg" width="100.607" height="100.746" viewBox="0 0 100.607 100.746">
  <path id="Path_111" data-name="Path 111" d="M430.406,179.527l-20.345-4.544v-3.216a17.737,17.737,0,0,0,6.852-8.46h4.475a6.535,6.535,0,0,0,6.5-6.5V145.478a6.552,6.552,0,0,0-3.216-5.593v-7.061a8.639,8.639,0,0,0-5.314-8.04l-.419-.769a22.663,22.663,0,0,0-42.927,10.138v5.8a6.4,6.4,0,0,0-3.216,5.593v11.326a6.535,6.535,0,0,0,6.5,6.5h4.475a18.148,18.148,0,0,0,6.852,8.46v3.216L370.279,179.6a11.307,11.307,0,0,0-8.879,11.116v21.394h77.885V190.713A11.2,11.2,0,0,0,430.406,179.527Zm-18.877-.909-2.377,9.648L403,184.141l6.083-6.083Zm-13.074,17.129H402.3l2.587,13h-9.019Zm3.915-3.216h-3.985l-1.049-4.125,3.006-2.027,3.006,2.027ZM424.743,156.8a3.207,3.207,0,0,1-3.216,3.216h-3.566a16.658,16.658,0,0,0,.28-3.216V142.192h3.216a3.207,3.207,0,0,1,3.216,3.216v11.4ZM379.3,134.082a19.444,19.444,0,0,1,36.845-8.669l.979,1.958.629.21a5.568,5.568,0,0,1,3.775,5.244v6.222H418.31v-4.894h-3.356V138a9.323,9.323,0,0,1-3.915,1.049,15.97,15.97,0,0,0,2.028-2.307l-2.727-1.818a9.317,9.317,0,0,1-7.411,4.125,15.974,15.974,0,0,0,2.027-2.307l-2.727-1.818a9.316,9.316,0,0,1-7.411,4.125,15.976,15.976,0,0,0,2.028-2.307l-2.727-1.818a9.307,9.307,0,0,1-7.761,4.125h-.629v-4.894h-3.216v4.894H379.3Zm0,26.008a3.208,3.208,0,0,1-3.216-3.216V145.548a3.207,3.207,0,0,1,3.216-3.216h3.216v14.612a23.93,23.93,0,0,0,.28,3.216h-3.5Zm6.5-3.286V142.192h.629a12.2,12.2,0,0,0,5.873-1.468v1.468h2.237a12.2,12.2,0,0,0,5.873-1.468v1.468h2.237a12.2,12.2,0,0,0,5.873-1.468v1.468h2.237a12.062,12.062,0,0,0,4.195-.769V156.8a16.185,16.185,0,0,1-.35,3.216h-8.04a4.839,4.839,0,0,0-4.544-3.216H398.8a4.894,4.894,0,1,0,0,9.788h3.216a4.772,4.772,0,0,0,4.544-3.216h6.852a14.543,14.543,0,0,1-13.074,8.11A14.7,14.7,0,0,1,385.8,156.8Zm17.828,4.894a1.582,1.582,0,0,1-1.608,1.608H398.8a1.608,1.608,0,1,1,0-3.216h3.216A1.582,1.582,0,0,1,403.628,161.7Zm-3.216,13a16.835,16.835,0,0,0,6.5-1.258v2.167l-6.5,6.5-6.5-6.5v-2.167A18.236,18.236,0,0,0,400.412,174.7Zm-8.669,3.356,6.083,6.083-6.153,4.125-2.377-9.648Zm-27.057,12.515a8.012,8.012,0,0,1,6.362-7.9l15.032-3.356,3.566,14.193,4.894-3.216.979,3.915-2.936,14.542H377.69V190.923H374.4v17.828h-9.718Zm71.383,18.178h-9.718V190.923h-3.216v17.828H408.243l-2.936-14.542.979-3.915,4.894,3.216,3.566-14.193,15.032,3.356a8.012,8.012,0,0,1,6.362,7.9v18.178Z" transform="translate(-338.678 -111.36)" fill="#fff"/>
  <path id="Path_116" data-name="Path 116" d="M353.33,140.035v-6.013h4.894V111.3H329v22.722h13.354Zm-21.114-25.449h22.722v16.22h-4.894v3.775l-6.852-3.775H332.216Z" transform="translate(-328.93 -111.3)" fill="#fff"/>
  <path id="Path_117" data-name="Path 117" d="M363.018,182.548H336.87l1.818-2.727V153.394a4.894,4.894,0,1,0-9.788,0v26.428l3.985,6.013h30.063v-3.286Zm-29.224-30.832a1.582,1.582,0,0,1,1.608,1.608v3.216h-3.216v-3.216A1.626,1.626,0,0,1,333.794,151.716Zm0,29.574-1.608-2.447V159.9H335.4v18.947Z" transform="translate(-328.9 -122.492)" fill="#fff"/>
</svg>
