<svg id="maintenance" xmlns="http://www.w3.org/2000/svg" width="121.805" height="131.342" viewBox="0 0 121.805 131.342">
  <path id="Path_2550" data-name="Path 2550" d="M120.151,50.442l-11.3-1.089a48.155,48.155,0,0,0-5.737-13.627l7.2-8.694a2.145,2.145,0,0,0-.134-2.886L97.962,11.923a2.146,2.146,0,0,0-2.886-.134l-8.7,7.2a49.531,49.531,0,0,0-13.621-5.739L71.664,1.94A2.146,2.146,0,0,0,69.527,0h-16.7a2.145,2.145,0,0,0-2.136,1.94L49.6,13.254a49.5,49.5,0,0,0-13.621,5.739l-8.7-7.206a2.146,2.146,0,0,0-2.886.134L12.17,24.144a2.146,2.146,0,0,0-.134,2.887l7.2,8.693a48.135,48.135,0,0,0-5.741,13.629L2.2,50.444A2.135,2.135,0,0,0,.274,52.58V69.906A2.134,2.134,0,0,0,2.2,72.042l11.306,1.09a49.5,49.5,0,0,0,5.735,13.621l-7.207,8.7a2.147,2.147,0,0,0,.231,2.977l9.27,8.2a2.145,2.145,0,0,0,3.183-.38L38.04,87.132a2.148,2.148,0,0,0-.244-2.746,32.731,32.731,0,1,1,46.29,0,2.146,2.146,0,0,0-.223,2.774l13.791,19.115a2.146,2.146,0,0,0,3.162.352l9.273-8.2a2.147,2.147,0,0,0,.231-2.978l-7.205-8.7a49.5,49.5,0,0,0,5.738-13.621l11.3-1.09a2.134,2.134,0,0,0,1.927-2.136V52.578a2.135,2.135,0,0,0-1.927-2.136Zm-2.365,17.513L106.9,69.006a2.138,2.138,0,0,0-1.883,1.673,45.264,45.264,0,0,1-6.348,15.069,2.146,2.146,0,0,0,.144,2.545l6.875,8.3-5.939,5.251L88.385,86.093a37.024,37.024,0,1,0-54.87.022l-10.942,15.7-5.909-5.225,6.874-8.3a2.148,2.148,0,0,0,.143-2.546,45.309,45.309,0,0,1-6.353-15.067,2.131,2.131,0,0,0-1.876-1.673L4.566,67.956V54.529l10.886-1.051A2.137,2.137,0,0,0,17.337,51.8a43.94,43.94,0,0,1,6.342-15.046,2.148,2.148,0,0,0-.138-2.555l-6.954-8.4,9.457-9.458,8.4,6.953a2.143,2.143,0,0,0,2.545.143,45.285,45.285,0,0,1,15.067-6.352,2.146,2.146,0,0,0,1.673-1.89l1.05-10.9h12.8l1.051,10.9a2.146,2.146,0,0,0,1.672,1.89,45.283,45.283,0,0,1,15.068,6.353,2.143,2.143,0,0,0,2.545-.143l8.395-6.953,9.457,9.457-6.953,8.4a2.147,2.147,0,0,0-.136,2.554A43.949,43.949,0,0,1,105.021,51.8a2.129,2.129,0,0,0,1.878,1.683l10.887,1.05Zm0,0" transform="translate(-0.274 0)" fill="#f7f7f7"/>
  <path id="Path_2551" data-name="Path 2551" d="M186.183,194.12V161.53a17.9,17.9,0,0,0,8.962-15.167c0-8.352-4.776-14.434-12.775-16.269a2.146,2.146,0,0,0-2.621,2.258l.71,9.108a6.163,6.163,0,0,1-5.723,0l.763-9.159a2.146,2.146,0,0,0-2.736-2.24c-7.316,2.119-11.874,8.411-11.874,16.423,0,7.354,3.859,13.3,10.3,15.881v32.464c-4.561,2.692-8.955,8.156-8.886,15.107,0,8.284,4.722,14.407,12.618,16.383a2.15,2.15,0,0,0,2.666-2.248l-.706-9.107a6.166,6.166,0,0,1,5.723,0l-.763,9.16a2.146,2.146,0,0,0,2.736,2.24c7.281-2.11,11.848-8.37,11.921-16.363,0-7.355-3.908-13.3-10.311-15.881Zm.23,26.789.571-6.863a2.146,2.146,0,0,0-.837-1.885l-.081-.062a10.458,10.458,0,0,0-12.755.084,2.147,2.147,0,0,0-.81,1.852l.548,7.06c-4.132-2.059-6.443-5.994-6.443-11.176-.056-5.647,3.921-10.1,7.651-11.846a2.134,2.134,0,0,0,1.223-1.944V160.848a2.136,2.136,0,0,0-1.513-2.055c-5.419-1.636-8.778-6.351-8.778-12.307a12.444,12.444,0,0,1,5.732-10.97l-.569,6.863a2.144,2.144,0,0,0,.841,1.886l.08.061a10.453,10.453,0,0,0,12.744-.073l.058-.046a2.149,2.149,0,0,0,.766-1.816l-.555-7.136c4.215,1.976,6.572,5.892,6.572,11.109a13.732,13.732,0,0,1-7.735,11.933,2.146,2.146,0,0,0-1.225,1.939v35.4a2.146,2.146,0,0,0,1.526,2.054c5.42,1.637,8.785,6.352,8.785,12.288a12.545,12.545,0,0,1-5.791,10.928Zm0,0" transform="translate(-117.796 -95.107)" fill="#f7f7f7"/>
</svg>
