<svg xmlns="http://www.w3.org/2000/svg" width="122.807" height="118.627" viewBox="0 0 122.807 118.627">
  <path id="Path_3" d="M794.086,147.208v-.16a14.388,14.388,0,0,0-14.414-14.334,13.934,13.934,0,0,0-3.6.48,30.718,30.718,0,0,0-58.219,0,14.412,14.412,0,0,0-17.537,10.25,13.934,13.934,0,0,0-.48,3.6v.16a24.539,24.539,0,0,0,8.248,46.767v4.164a2.068,2.068,0,0,0,2.082,2.082h7.207a31.19,31.19,0,0,0,2.883,6.967l-5.125,5.125a2.03,2.03,0,0,0,0,2.883l8.649,8.649a2.03,2.03,0,0,0,2.883,0l5.125-5.125a27.84,27.84,0,0,0,6.967,2.883v7.207a2.068,2.068,0,0,0,2.082,2.082h12.252a2.067,2.067,0,0,0,2.082-2.082h0v-7.287a31.187,31.187,0,0,0,6.967-2.883l5.125,5.125a2.03,2.03,0,0,0,2.883,0l8.649-8.649a2.03,2.03,0,0,0,0-2.883l-5.125-5.125a27.841,27.841,0,0,0,2.883-6.967h7.207a2.068,2.068,0,0,0,2.082-2.082h0V193.9H786a24.538,24.538,0,0,0,8.088-46.687Zm-12.332,48.929h-6.807a2.05,2.05,0,0,0-2,1.6,26.454,26.454,0,0,1-3.6,8.649,2.06,2.06,0,0,0,.24,2.563l4.8,4.8-5.766,5.766-4.8-4.8a2.06,2.06,0,0,0-2.562-.24,28.3,28.3,0,0,1-8.649,3.6,2.05,2.05,0,0,0-1.6,2v6.807h-8.168v-6.807a2.05,2.05,0,0,0-1.6-2,26.455,26.455,0,0,1-8.649-3.6,2.176,2.176,0,0,0-2.562.24l-4.8,4.8-5.766-5.766,4.8-4.8a1.961,1.961,0,0,0,.24-2.563,28.307,28.307,0,0,1-3.6-8.649,2.05,2.05,0,0,0-2-1.6h-6.807v-8.168h6.807a2.05,2.05,0,0,0,2-1.6,26.457,26.457,0,0,1,3.6-8.649,2.061,2.061,0,0,0-.24-2.563l-4.8-4.8,5.766-5.766,4.8,4.8a2.05,2.05,0,0,0,2.563.24,28.3,28.3,0,0,1,8.649-3.6,2.05,2.05,0,0,0,1.6-2v-6.807H751v6.807a2.05,2.05,0,0,0,1.6,2,26.453,26.453,0,0,1,8.649,3.6,2.175,2.175,0,0,0,2.562-.24l4.8-4.8,5.766,5.766-4.8,4.8a1.961,1.961,0,0,0-.24,2.563,28.31,28.31,0,0,1,3.6,8.649,2.05,2.05,0,0,0,2,1.6h6.807Zm4.084-6.246v-4a2.068,2.068,0,0,0-2.082-2.082h-7.207a31.19,31.19,0,0,0-2.883-6.967l5.125-5.125a2.03,2.03,0,0,0,0-2.883l-8.649-8.649a2.03,2.03,0,0,0-2.883,0l-5.125,5.125a27.841,27.841,0,0,0-6.967-2.883v-7.207a2.068,2.068,0,0,0-2.082-2.082H740.833a2.068,2.068,0,0,0-2.082,2.082v7.207a31.194,31.194,0,0,0-6.967,2.883l-5.125-5.125a2.03,2.03,0,0,0-2.883,0l-8.649,8.729a2.03,2.03,0,0,0,0,2.883l5.125,5.125a27.832,27.832,0,0,0-2.883,6.967h-7.207a2.068,2.068,0,0,0-2.082,2.082v4a20.489,20.489,0,0,1-5.285-39.48,1.952,1.952,0,0,0,1.281-2.162,10.247,10.247,0,0,1,8.729-11.451,8.234,8.234,0,0,1,1.362-.08,10.793,10.793,0,0,1,4.164.881,2.051,2.051,0,0,0,2.723-1.041c.08-.08.08-.24.16-.32a26.629,26.629,0,0,1,51.572,0,1.943,1.943,0,0,0,2.483,1.441.607.607,0,0,0,.32-.16,10.493,10.493,0,0,1,4.164-.881A10.237,10.237,0,0,1,790,146.808a7.327,7.327,0,0,1-.08,1.361,2.041,2.041,0,0,0,1.281,2.162,20.524,20.524,0,0,1-5.365,39.56Z" transform="translate(-685.484 -112.266)" fill="#0075bc"/>
</svg>
