<svg xmlns="http://www.w3.org/2000/svg" width="64.77" height="115.172" viewBox="0 0 64.77 115.172">
  <path id="Path_35" d="M-291.43,654.291v-91.8A10.772,10.772,0,0,0-302.225,551.7H-345.4a10.772,10.772,0,0,0-10.8,10.795v91.8a12.578,12.578,0,0,0,12.581,12.581h39.607A12.578,12.578,0,0,0-291.43,654.291ZM-295,641.709H-352.55V566.145H-295Zm-57.547,3.573H-295v1.786a9.015,9.015,0,0,1-9.009,9.009h-39.607a9.015,9.015,0,0,1-9.009-9.009Zm7.145-89.932h43.18A7.259,7.259,0,0,1-295,562.573H-352.55a7.143,7.143,0,0,1,7.145-7.222ZM-304.012,663.3h-39.607a9.059,9.059,0,0,1-8.853-7.223,12.516,12.516,0,0,0,8.853,3.65h39.607a12.792,12.792,0,0,0,8.853-3.65A9.059,9.059,0,0,1-304.012,663.3Z" transform="translate(356.199 -551.7)" fill="#fff"/>
</svg>
