<svg id="Group_9369" data-name="Group 9369" xmlns="http://www.w3.org/2000/svg" xmlns:xlink="http://www.w3.org/1999/xlink" width="56.268" height="46.403" viewBox="0 0 56.268 46.403">
  <defs>
    <clipPath id="clip-path">
      <rect id="Rectangle_1195" data-name="Rectangle 1195" width="56.268" height="46.403" fill="none"/>
    </clipPath>
  </defs>
  <g id="Group_9315" data-name="Group 9315" clip-path="url(#clip-path)">
    <path id="Path_2840" data-name="Path 2840" d="M28.77,5.257c-2.145-3.64-5.837-5.421-9.291-4.53-4.142,1.062-5.929,5.483-6.127,6-.568-.047-1.139-.091-1.706-.124C3.122,6.132.82,11.491.516,17.036A12.059,12.059,0,0,0,5.981,27.613,12.55,12.55,0,0,0,5.63,35L39.8,1.978C36.016.674,31.805,1.906,28.77,5.257Z" transform="translate(-0.347 -0.325)" fill="none" stroke="#01d6c6" stroke-miterlimit="10" stroke-width="1"/>
    <path id="Path_2841" data-name="Path 2841" d="M85.292,30.841,52.981,62.065a8.561,8.561,0,0,0,3.5-2.023c3.07,4.827,8.112,7.139,12.811,5.889,5.466-1.453,7.941-7.092,8.271-7.889a6.841,6.841,0,0,0,8.39-1.468,10.222,10.222,0,0,0,2.263-6.827,10.908,10.908,0,0,0,4.632-10.31C92.24,34.917,89.124,31.48,85.292,30.841Z" transform="translate(-36.79 -20.038)" fill="none" stroke="#01d6c6" stroke-miterlimit="10" stroke-width="1"/>
  </g>
</svg>
