<svg id="_-System-Icons" data-name="ðŸ”-System-Icons" xmlns="http://www.w3.org/2000/svg" width="57.93" height="70.219" viewBox="0 0 57.93 70.219">
  <g id="ic_fluent_dictionary_24_regular" transform="translate(0 0)">
    <path id="_-Color" data-name="ðŸŽ¨-Color" d="M53.153,2a8.777,8.777,0,0,1,8.777,8.777V60.808A2.633,2.633,0,0,1,59.3,63.441H9.266a3.511,3.511,0,0,0,3.511,3.511H59.3a2.633,2.633,0,1,1,0,5.266H12.777A8.777,8.777,0,0,1,4,63.441V10.777A8.777,8.777,0,0,1,12.777,2Zm0,5.266H12.777a3.511,3.511,0,0,0-3.511,3.511v47.4h47.4v-47.4A3.511,3.511,0,0,0,53.153,7.266Zm-7.022,5.266a3.511,3.511,0,0,1,3.511,3.511v7.022a3.511,3.511,0,0,1-3.511,3.511H18.044a3.511,3.511,0,0,1-3.511-3.511V16.044a3.511,3.511,0,0,1,3.511-3.511ZM44.376,17.8H19.8V21.31H44.376Z" transform="translate(-4 -2)" fill="#0576bc"/>
  </g>
</svg>
