<svg id="_-Product-Icons" data-name="ðŸ”-Product-Icons" xmlns="http://www.w3.org/2000/svg" width="93.6" height="84.262" viewBox="0 0 93.6 84.262">
  <g id="ic_fluent_people_community_24_regular">
    <path id="_-Color" data-name="ðŸŽ¨-Color" d="M61.656,59.147a8.188,8.188,0,0,1,8.188,8.188l-.005,4.5c.546,10.243-7.07,15.426-20.737,15.426-13.611,0-21.368-5.1-21.368-15.249V67.335a8.188,8.188,0,0,1,8.188-8.188Zm0,7.018H35.922a1.17,1.17,0,0,0-1.17,1.17v4.679c0,5.5,4.149,8.23,14.349,8.23,10.143,0,14.017-2.637,13.724-8.221V67.335A1.17,1.17,0,0,0,61.656,66.165ZM10.188,35.752H30.663a18.893,18.893,0,0,0-.445,7.015l-20.03,0a1.17,1.17,0,0,0-1.17,1.17v4.679c0,5.5,4.149,8.23,14.349,8.23a38.442,38.442,0,0,0,5.65-.362,12.833,12.833,0,0,0-5.489,7.376l-.161,0C9.757,63.868,2,58.769,2,48.619V43.94A8.188,8.188,0,0,1,10.188,35.752Zm77.2,0a8.188,8.188,0,0,1,8.188,8.188l-.005,4.5c.546,10.243-7.07,15.426-20.737,15.426l-.787-.008a12.891,12.891,0,0,0-5.7-7.517,35.689,35.689,0,0,0,6.487.506c10.143,0,14.017-2.637,13.724-8.221V43.94a1.17,1.17,0,0,0-1.17-1.17l-20.029,0a18.952,18.952,0,0,0,.144-2.336,18.737,18.737,0,0,0-.59-4.678Zm-38.6-9.358A14.037,14.037,0,1,1,34.752,40.431,14.037,14.037,0,0,1,48.789,26.394Zm0,7.018a7.018,7.018,0,1,0,7.018,7.018A7.018,7.018,0,0,0,48.789,33.413ZM23.055,3A14.037,14.037,0,1,1,9.018,17.037,14.037,14.037,0,0,1,23.055,3ZM74.523,3A14.037,14.037,0,1,1,60.486,17.037,14.037,14.037,0,0,1,74.523,3ZM23.055,10.018a7.018,7.018,0,1,0,7.018,7.018A7.018,7.018,0,0,0,23.055,10.018Zm51.468,0a7.018,7.018,0,1,0,7.018,7.018A7.018,7.018,0,0,0,74.523,10.018Z" transform="translate(-2 -3)" fill="#0576bc"/>
  </g>
</svg>
