<svg id="_-Product-Icons" data-name="ðŸ”-Product-Icons" xmlns="http://www.w3.org/2000/svg" width="67.406" height="84.262" viewBox="0 0 67.406 84.262">
  <g id="ic_fluent_bot_24_regular">
    <path id="_-Color" data-name="ðŸŽ¨-Color" d="M61.93,52.554a9.479,9.479,0,0,1,9.479,9.479v3.813A15.8,15.8,0,0,1,65.9,77.833c-6.6,5.662-16.034,8.429-28.209,8.429S16.087,83.5,9.5,77.835A15.8,15.8,0,0,1,4,65.855V62.033a9.479,9.479,0,0,1,9.479-9.479Zm0,6.319H13.483a3.16,3.16,0,0,0-3.16,3.16v3.822a9.48,9.48,0,0,0,3.3,7.188c5.3,4.557,13.288,6.9,24.07,6.9s18.781-2.344,24.093-6.9a9.48,9.48,0,0,0,3.3-7.192V62.033A3.16,3.16,0,0,0,61.93,58.873ZM37.265,2.029,37.694,2a3.161,3.161,0,0,1,3.131,2.731l.029.429,0,3.156,14.748,0A9.479,9.479,0,0,1,65.077,17.8V36.775A9.479,9.479,0,0,1,55.6,46.254H19.787a9.479,9.479,0,0,1-9.479-9.479V17.8a9.479,9.479,0,0,1,9.479-9.479l14.743,0,0-3.156a3.161,3.161,0,0,1,2.731-3.131L37.694,2ZM55.6,14.637H19.787a3.16,3.16,0,0,0-3.16,3.16V36.775a3.16,3.16,0,0,0,3.16,3.16H55.6a3.16,3.16,0,0,0,3.16-3.16V17.8A3.16,3.16,0,0,0,55.6,14.637ZM28.21,20.957a5.263,5.263,0,1,1-5.263,5.263A5.263,5.263,0,0,1,28.21,20.957Zm18.928,0a5.263,5.263,0,1,1-5.263,5.263A5.263,5.263,0,0,1,47.138,20.957Z" transform="translate(-4.004 -2)" fill="#0576bc"/>
  </g>
</svg>
