<svg id="_-Product-Icons" data-name="ðŸ”-Product-Icons" xmlns="http://www.w3.org/2000/svg" width="67.41" height="84.262" viewBox="0 0 67.41 84.262">
  <g id="ic_fluent_lock_24_regular" transform="translate(0 0)">
    <path id="_-Color" data-name="ðŸŽ¨-Color" d="M37.7,2A16.853,16.853,0,0,1,54.557,18.852v8.426H61.93a9.48,9.48,0,0,1,9.479,9.479V76.783a9.48,9.48,0,0,1-9.479,9.479H13.48A9.48,9.48,0,0,1,4,76.783V36.758a9.48,9.48,0,0,1,9.48-9.479h7.373V18.852A16.852,16.852,0,0,1,37.7,2ZM61.93,33.6H13.48a3.16,3.16,0,0,0-3.16,3.16V76.783a3.16,3.16,0,0,0,3.16,3.16H61.93a3.16,3.16,0,0,0,3.16-3.16V36.758A3.16,3.16,0,0,0,61.93,33.6ZM37.705,50.451a6.32,6.32,0,1,1-6.32,6.32A6.32,6.32,0,0,1,37.705,50.451Zm0-42.131A10.533,10.533,0,0,0,27.172,18.852v8.426H48.238V18.852A10.533,10.533,0,0,0,37.7,8.32Z" transform="translate(-4 -2)" fill="#01d6c6"/>
  </g>
</svg>
