<svg id="_-Product-Icons" data-name="ðŸ”-Product-Icons" xmlns="http://www.w3.org/2000/svg" width="70.219" height="70.219" viewBox="0 0 70.219 70.219">
  <g id="ic_fluent_developer_board_24_regular" transform="translate(0 0)">
    <path id="_Color" data-name="ðŸŽ¨Color" d="M48.52,2a2.634,2.634,0,0,1,2.609,2.276l.024.357,0,8.163a13.181,13.181,0,0,1,10.268,10.27h8.163a2.633,2.633,0,0,1,.357,5.242l-.357.024h-7.9v6.144h7.9a2.634,2.634,0,0,1,2.609,2.276l.024.357a2.634,2.634,0,0,1-2.276,2.609l-.357.024h-7.9v6.144h7.9a2.634,2.634,0,0,1,2.609,2.276l.024.357a2.634,2.634,0,0,1-2.276,2.609l-.357.024-8.164,0A13.182,13.182,0,0,1,51.155,61.422l0,8.163a2.633,2.633,0,0,1-5.243.357l-.024-.357v-7.9H39.739l0,7.9a2.634,2.634,0,0,1-2.276,2.609l-.357.024A2.634,2.634,0,0,1,34.5,69.943l-.024-.357,0-7.9H28.332v7.9a2.634,2.634,0,0,1-2.276,2.609l-.357.024a2.634,2.634,0,0,1-2.609-2.276l-.024-.357,0-8.163A13.181,13.181,0,0,1,12.8,51.153H4.633a2.633,2.633,0,0,1-.357-5.243l.357-.024,7.9,0V39.739l-7.9,0a2.634,2.634,0,0,1-2.609-2.276L2,37.109A2.634,2.634,0,0,1,4.276,34.5l.357-.024,7.9,0V28.328l-7.9,0a2.634,2.634,0,0,1-2.609-2.276L2,25.7A2.634,2.634,0,0,1,4.276,23.09l.357-.024,8.164,0A13.182,13.182,0,0,1,23.067,12.8l0-8.163a2.633,2.633,0,0,1,5.242-.357l.024.357v7.9h6.141l0-7.9a2.634,2.634,0,0,1,2.276-2.609L37.109,2a2.634,2.634,0,0,1,2.609,2.276l.024.357,0,7.9h6.148v-7.9A2.634,2.634,0,0,1,47.82,2.094l.343-.07Zm0,15.8H25.7a7.9,7.9,0,0,0-7.9,7.9V48.52a7.9,7.9,0,0,0,7.9,7.9H48.52a7.9,7.9,0,0,0,7.9-7.9V25.7A7.9,7.9,0,0,0,48.52,17.8ZM37.126,26.594A10.533,10.533,0,1,1,26.594,37.126,10.533,10.533,0,0,1,37.126,26.594Zm0,5.266a5.266,5.266,0,1,0,5.266,5.266A5.267,5.267,0,0,0,37.126,31.86Z" transform="translate(-2 -2)" fill="#0576bc"/>
  </g>
</svg>
