<svg id="Group_9877" data-name="Group 9877" xmlns="http://www.w3.org/2000/svg" xmlns:xlink="http://www.w3.org/1999/xlink" width="37.401" height="25.267" viewBox="0 0 37.401 25.267">
  <defs>
    <clipPath id="clip-path">
      <rect id="Rectangle_1195" data-name="Rectangle 1195" width="37.401" height="25.267" fill="none"/>
    </clipPath>
  </defs>
  <g id="Group_9315" data-name="Group 9315" clip-path="url(#clip-path)">
    <path id="Path_2840" data-name="Path 2840" d="M19.291,3.09A6.129,6.129,0,0,0,13.115.623,6.113,6.113,0,0,0,9.043,3.89c-.378-.026-.757-.05-1.134-.068C2.243,3.567.713,6.485.51,9.5a6.313,6.313,0,0,0,3.633,5.759,5.668,5.668,0,0,0-.233,4.023L26.624,1.3A7.84,7.84,0,0,0,19.291,3.09Z" transform="translate(-0.398 -0.405)" fill="none" stroke="#01d6c6" stroke-miterlimit="10" stroke-width="1"/>
    <path id="Path_2841" data-name="Path 2841" d="M74.458,30.841l-21.477,17a6.092,6.092,0,0,0,2.325-1.1,8.586,8.586,0,0,0,8.515,3.207,8.455,8.455,0,0,0,5.5-4.3,5.283,5.283,0,0,0,5.577-.8,4.892,4.892,0,0,0,1.5-3.718,5.59,5.59,0,0,0,3.079-5.614A5.785,5.785,0,0,0,74.458,30.841Z" transform="translate(-42.219 -24.958)" fill="none" stroke="#01d6c6" stroke-miterlimit="10" stroke-width="1"/>
  </g>
</svg>
