<svg xmlns="http://www.w3.org/2000/svg" xmlns:xlink="http://www.w3.org/1999/xlink" width="76" height="122" viewBox="0 0 76 122">
  <defs>
    <clipPath id="clip-path">
      <rect id="Rectangle_17649" data-name="Rectangle 17649" width="76" height="122" transform="translate(0 357)" fill="#fff"/>
    </clipPath>
    <clipPath id="clip-path-2">
      <rect id="Rectangle_1195" data-name="Rectangle 1195" width="97.334" height="65.756" fill="none"/>
    </clipPath>
  </defs>
  <g id="Mask_Group_21" data-name="Mask Group 21" transform="translate(0 -357)" clip-path="url(#clip-path)">
    <g id="Group_9319" data-name="Group 9319" transform="translate(-21.334 357)">
      <g id="Group_9315" data-name="Group 9315" clip-path="url(#clip-path-2)">
        <path id="Path_2840" data-name="Path 2840" d="M49.4,7.241A15.95,15.95,0,0,0,33.331.821c-7.166,1.506-10.256,7.77-10.6,8.5-.983-.067-1.97-.129-2.951-.176C5.037,8.481,1.054,16.075.527,23.933c-.39,5.888,3.387,11.8,9.453,14.987a14.749,14.749,0,0,0-.607,10.47l59.113-46.8A20.4,20.4,0,0,0,49.4,7.241Z" transform="translate(-0.236 -0.252)" fill="none" stroke="#01d6c6" stroke-miterlimit="10" stroke-width="1"/>
        <path id="Path_2841" data-name="Path 2841" d="M108.873,30.841,52.981,75.086a15.853,15.853,0,0,0,6.051-2.867,22.344,22.344,0,0,0,22.16,8.345c9.455-2.059,13.736-10.05,14.308-11.179a13.749,13.749,0,0,0,14.514-2.081,12.73,12.73,0,0,0,3.915-9.675,14.546,14.546,0,0,0,8.012-14.61A15.054,15.054,0,0,0,108.873,30.841Z" transform="translate(-24.974 -15.532)" fill="none" stroke="#01d6c6" stroke-miterlimit="10" stroke-width="1"/>
      </g>
    </g>
  </g>
</svg>
