<svg id="Group_9317" data-name="Group 9317" xmlns="http://www.w3.org/2000/svg" xmlns:xlink="http://www.w3.org/1999/xlink" width="112.335" height="75.89" viewBox="0 0 112.335 75.89">
  <defs>
    <clipPath id="clip-path">
      <rect id="Rectangle_1195" data-name="Rectangle 1195" width="112.335" height="75.89" fill="none"/>
    </clipPath>
  </defs>
  <g id="Group_9315" data-name="Group 9315" clip-path="url(#clip-path)">
    <path id="Path_2840" data-name="Path 2840" d="M56.939,8.28A18.408,18.408,0,0,0,38.391.871c-8.27,1.738-11.837,8.967-12.233,9.811-1.135-.077-2.273-.149-3.406-.2-17.016-.767-21.612,8-22.22,17.066-.45,6.8,3.91,13.618,10.91,17.3a17.022,17.022,0,0,0-.7,12.083L78.964,2.918A23.548,23.548,0,0,0,56.939,8.28Z" transform="translate(-0.195 -0.214)" fill="none" stroke="#01d6c6" stroke-miterlimit="10" stroke-width="1"/>
    <path id="Path_2841" data-name="Path 2841" d="M117.487,30.841,52.981,81.905A18.3,18.3,0,0,0,59.964,78.6,25.787,25.787,0,0,0,85.54,88.228c10.912-2.376,15.853-11.6,16.513-12.9a15.867,15.867,0,0,0,16.751-2.4,14.692,14.692,0,0,0,4.518-11.166A16.788,16.788,0,0,0,132.569,44.9C131.359,37.508,125.139,31.886,117.487,30.841Z" transform="translate(-20.657 -13.173)" fill="none" stroke="#01d6c6" stroke-miterlimit="10" stroke-width="1"/>
  </g>
</svg>
