<svg id="Group_9316" data-name="Group 9316" xmlns="http://www.w3.org/2000/svg" xmlns:xlink="http://www.w3.org/1999/xlink" width="191.266" height="137.313" viewBox="0 0 191.266 137.313">
  <defs>
    <clipPath id="clip-path">
      <rect id="Rectangle_1195" data-name="Rectangle 1195" width="191.266" height="137.313" fill="none"/>
    </clipPath>
  </defs>
  <g id="Group_9315" data-name="Group 9315" clip-path="url(#clip-path)">
    <path id="Path_2840" data-name="Path 2840" d="M96.6,14.577C89.305,3.806,76.755-1.465,65.015,1.171,50.934,4.315,44.861,17.4,44.186,18.922c-1.932-.139-3.871-.27-5.8-.367C9.415,17.167,1.589,33.023.554,49.433c-.767,12.3,6.657,24.64,18.577,31.3a32.591,32.591,0,0,0-1.194,21.863L134.1,4.874C121.227,1.015,106.914,4.661,96.6,14.577Z" transform="translate(0.019 0.018)" fill="none" stroke="#01d6c6" stroke-miterlimit="10" stroke-width="1"/>
    <path id="Path_2841" data-name="Path 2841" d="M162.811,30.841,52.981,123.235a30.387,30.387,0,0,0,11.89-5.986c10.437,14.284,27.575,21.125,43.546,17.427,18.58-4.3,26.992-20.987,28.116-23.345a25.766,25.766,0,0,0,28.521-4.345c8-7.72,7.738-18.446,7.693-20.2A30.829,30.829,0,0,0,188.49,56.274,30.4,30.4,0,0,0,162.811,30.841Z" transform="translate(2.055 1.128)" fill="none" stroke="#01d6c6" stroke-miterlimit="10" stroke-width="1"/>
  </g>
</svg>
