<svg id="Group_9318" data-name="Group 9318" xmlns="http://www.w3.org/2000/svg" xmlns:xlink="http://www.w3.org/1999/xlink" width="228.184" height="154.154" viewBox="0 0 228.184 154.154">
  <defs>
    <clipPath id="clip-path">
      <rect id="Rectangle_1195" data-name="Rectangle 1195" width="228.184" height="154.154" fill="none"/>
    </clipPath>
  </defs>
  <g id="Group_9315" data-name="Group 9315" clip-path="url(#clip-path)">
    <path id="Path_2840" data-name="Path 2840" d="M115.144,16.3c-8.7-12.092-23.67-18.009-37.677-15.05-16.8,3.53-24.043,18.215-24.849,19.928-2.305-.156-4.618-.3-6.919-.412C11.136,19.211,1.8,37.012.564,55.435-.35,69.239,8.506,83.1,22.727,90.57A34.577,34.577,0,0,0,21.3,115.115L159.883,5.411A47.833,47.833,0,0,0,115.144,16.3Z" transform="translate(0.12 0.082)" fill="none" stroke="#01d6c6" stroke-miterlimit="10" stroke-width="1"/>
    <path id="Path_2841" data-name="Path 2841" d="M184.011,30.841,52.981,134.567a37.165,37.165,0,0,0,14.185-6.72c12.451,16.036,32.9,23.716,51.951,19.564,22.166-4.826,32.2-23.561,33.543-26.208a32.231,32.231,0,0,0,34.026-4.878c9.546-8.667,9.231-20.708,9.178-22.681,13.07-6.79,20.487-20.316,18.783-34.251C212.19,44.383,199.554,32.964,184.011,30.841Z" transform="translate(12.678 5.049)" fill="none" stroke="#01d6c6" stroke-miterlimit="10" stroke-width="1"/>
  </g>
</svg>
